<?xml version="1.0" encoding="utf-8"?>
<!-- Generator: Adobe Illustrator 19.2.1, SVG Export Plug-In . SVG Version: 6.00 Build 0)  -->
<svg version="1.1" id="Layer_1" xmlns="http://www.w3.org/2000/svg" xmlns:xlink="http://www.w3.org/1999/xlink" x="0px" y="0px"
	 width="72px" height="72px" viewBox="0 0 72 72" style="enable-background:new 0 0 72 72;" xml:space="preserve">
<style type="text/css">
	.st0{fill:#F5F5F5;}
</style>
<path class="st0" d="M63,60H9c-1.6,0-3-1.3-3-3v0c0-1.6,1.3-3,3-3h54c1.6,0,3,1.3,3,3v0C66,58.7,64.7,60,63,60z"/>
<path class="st0" d="M63,48H9c-1.6,0-3-1.3-3-3v0c0-1.6,1.3-3,3-3h54c1.6,0,3,1.3,3,3v0C66,46.7,64.7,48,63,48z"/>
<path class="st0" d="M63,36H9c-1.6,0-3-1.3-3-3v0c0-1.6,1.3-3,3-3h54c1.6,0,3,1.3,3,3v0C66,34.7,64.7,36,63,36z"/>
</svg>
