<?xml version="1.0" encoding="utf-8"?>
<!-- Generator: Adobe Illustrator 19.2.1, SVG Export Plug-In . SVG Version: 6.00 Build 0)  -->
<svg version="1.1" id="Layer_1" xmlns="http://www.w3.org/2000/svg" xmlns:xlink="http://www.w3.org/1999/xlink" x="0px" y="0px"
	 width="72px" height="72px" viewBox="0 0 72 72" style="enable-background:new 0 0 72 72;" xml:space="preserve">
<style type="text/css">
	.st0{fill:#BDDDF4;}
	.st1{fill:#F5F5F5;}
</style>
<path class="st0" d="M54,44.9c-14.9,0-26.9-12-26.9-26.9c0-3.5,0.7-6.8,1.9-9.9C19,12,12,21.7,12,33.1C12,48,24,60,38.9,60
	c11.4,0,21.1-7,25-16.9C60.8,44.2,57.4,44.9,54,44.9z"/>
<path class="st1" d="M43.3,37.7c-1.5,0-2.8,0.3-4.1,0.6C36,33.3,30.3,30,24,30c-9.9,0-18,8.1-18,18s8.1,18,18,18h19.3
	c7.8,0,14.1-6.3,14.1-14.1S51.1,37.7,43.3,37.7z"/>
</svg>
