<?xml version="1.0" encoding="utf-8"?>
<!-- Generator: Adobe Illustrator 19.2.1, SVG Export Plug-In . SVG Version: 6.00 Build 0)  -->
<svg version="1.1" id="Layer_1" xmlns="http://www.w3.org/2000/svg" xmlns:xlink="http://www.w3.org/1999/xlink" x="0px" y="0px"
	 width="72px" height="72px" viewBox="0 0 72 72" style="enable-background:new 0 0 72 72;" xml:space="preserve">
<style type="text/css">
	.st0{fill:#B3E5FC;}
	.st1{fill:#F5F5F5;}
	.st2{fill:#FFFFFF;}
</style>
<g>
	<path class="st0" d="M19.4,46L19.4,46c-0.8-0.5-1.7-0.2-2.1,0.5l-7.5,13c-0.4,0.7-0.2,1.6,0.5,2h0.1c0.7,0.4,1.6,0.2,2-0.5l7.5-13
		C20.3,47.3,20.1,46.4,19.4,46z"/>
	<path class="st0" d="M26.6,46L26.6,46c-0.8-0.5-1.7-0.2-2.1,0.5l-7.5,13c-0.4,0.7-0.2,1.6,0.5,2l0.1,0.1c0.7,0.4,1.6,0.2,2-0.5
		l7.5-13C27.5,47.3,27.3,46.4,26.6,46z"/>
	<path class="st0" d="M33.8,46L33.8,46c-0.8-0.5-1.7-0.2-2.1,0.5l-7.5,13c-0.4,0.7-0.2,1.6,0.5,2l0.1,0.1c0.7,0.4,1.6,0.2,2-0.5
		l7.5-13C34.7,47.3,34.5,46.4,33.8,46z"/>
	<path class="st0" d="M41,46L41,46c-0.8-0.5-1.7-0.2-2.1,0.5l-7.5,13c-0.4,0.7-0.2,1.6,0.5,2l0.1,0.1c0.7,0.4,1.6,0.2,2-0.5l7.5-13
		C41.9,47.3,41.7,46.4,41,46z"/>
	<path class="st0" d="M48.2,46L48.2,46c-0.8-0.5-1.7-0.2-2.1,0.5l-7.5,13c-0.4,0.7-0.2,1.6,0.5,2l0.1,0.1c0.7,0.4,1.6,0.2,2-0.5
		l7.5-13C49.1,47.3,48.9,46.4,48.2,46z"/>
	<path class="st0" d="M55.4,46L55.4,46c-0.8-0.5-1.7-0.2-2.1,0.5l-7.5,13c-0.4,0.7-0.2,1.6,0.5,2l0.1,0.1c0.7,0.4,1.6,0.2,2-0.5
		l7.5-13C56.3,47.3,56.1,46.4,55.4,46z"/>
</g>
<path class="st1" d="M49.5,21c-1.7,0-3.3,0.3-4.8,0.7C41,15.9,34.4,12,27,12C15.4,12,6,21.4,6,33s9.4,21,21,21h22.5
	C58.6,54,66,46.6,66,37.5S58.6,21,49.5,21z"/>
<circle class="st2" cx="44.7" cy="64.5" r="1.5"/>
<circle class="st2" cx="37.5" cy="64.5" r="1.5"/>
<circle class="st2" cx="30.3" cy="64.5" r="1.5"/>
<circle class="st2" cx="23.1" cy="64.5" r="1.5"/>
<circle class="st2" cx="15.9" cy="64.5" r="1.5"/>
<circle class="st2" cx="8.7" cy="64.5" r="1.5"/>
</svg>
