<?xml version="1.0" encoding="utf-8"?>
<!-- Generator: Adobe Illustrator 19.2.1, SVG Export Plug-In . SVG Version: 6.00 Build 0)  -->
<svg version="1.1" id="Layer_1" xmlns="http://www.w3.org/2000/svg" xmlns:xlink="http://www.w3.org/1999/xlink" x="0px" y="0px"
	 width="72px" height="72px" viewBox="0 0 72 72" style="enable-background:new 0 0 72 72;" xml:space="preserve">
<style type="text/css">
	.st0{fill:#F5F5F5;}
	.st1{fill:#FFFFFF;}
</style>
<path class="st0" d="M49.5,21c-1.7,0-3.3,0.3-4.8,0.7C41,15.9,34.4,12,27,12C15.4,12,6,21.4,6,33s9.4,21,21,21h22.5
	C58.6,54,66,46.6,66,37.5S58.6,21,49.5,21z"/>
<circle class="st1" cx="44.7" cy="64.5" r="1.5"/>
<circle class="st1" cx="37.5" cy="64.5" r="1.5"/>
<circle class="st1" cx="30.3" cy="64.5" r="1.5"/>
<circle class="st1" cx="23.1" cy="64.5" r="1.5"/>
<circle class="st1" cx="48.3" cy="60.9" r="1.5"/>
<circle class="st1" cx="41.1" cy="60.9" r="1.5"/>
<circle class="st1" cx="33.9" cy="60.9" r="1.5"/>
<circle class="st1" cx="26.7" cy="60.9" r="1.5"/>
<circle class="st1" cx="15.9" cy="64.5" r="1.5"/>
<circle class="st1" cx="19.5" cy="60.9" r="1.5"/>
<circle class="st1" cx="44.7" cy="57.3" r="1.5"/>
<circle class="st1" cx="51.9" cy="57.3" r="1.5"/>
<circle class="st1" cx="51.9" cy="64.5" r="1.5"/>
<circle class="st1" cx="37.5" cy="57.3" r="1.5"/>
<circle class="st1" cx="30.3" cy="57.3" r="1.5"/>
<circle class="st1" cx="15.9" cy="57.3" r="1.5"/>
<circle class="st1" cx="55.5" cy="60.9" r="1.5"/>
<circle class="st1" cx="23.1" cy="57.3" r="1.5"/>
</svg>
