<?xml version="1.0" encoding="utf-8"?>
<!-- Generator: Adobe Illustrator 19.2.1, SVG Export Plug-In . SVG Version: 6.00 Build 0)  -->
<svg version="1.1" id="Layer_1" xmlns="http://www.w3.org/2000/svg" xmlns:xlink="http://www.w3.org/1999/xlink" x="0px" y="0px"
	 width="72px" height="72px" viewBox="0 0 72 72" style="enable-background:new 0 0 72 72;" xml:space="preserve">
<style type="text/css">
	.st0{fill:#F5F5F5;}
</style>
<path class="st0" d="M64.2,34.6L10.9,65.4c-1.6,0.9-3.6,0.6-4.5-0.9l0,0c-0.8-1.4-0.2-3.3,1.5-4.3l53.3-30.8
	c1.6-0.9,3.6-0.6,4.5,0.9l0,0C66.5,31.8,65.9,33.6,64.2,34.6z"/>
<path class="st0" d="M64.2,22.6L10.9,53.4c-1.6,0.9-3.6,0.6-4.5-0.9l0,0c-0.8-1.4-0.2-3.3,1.5-4.3l53.3-30.8
	c1.6-0.9,3.6-0.6,4.5,0.9l0,0C66.5,19.8,65.9,21.6,64.2,22.6z"/>
<path class="st0" d="M64.1,10.6L10.9,41.4c-1.6,0.9-3.6,0.6-4.5-0.9l0,0c-0.8-1.4-0.2-3.3,1.5-4.3L61.1,5.4c1.6-0.9,3.6-0.6,4.5,0.9
	l0,0C66.4,7.8,65.8,9.7,64.1,10.6z"/>
</svg>
